Amstelvar-Roman-opsz84-wght100.ufo
<glyph name="six" format="2">
  <advance width="825"/>
  <unicode hex="0036"/>
  <outline>
    <contour>
      <point x="60" y="612.0" type="qcurve" smooth="yes"/>
      <point x="60" y="973.0"/>
      <point x="368" y="1465.0"/>
      <point x="599" y="1525.0" type="qcurve"/>
      <point x="609" y="1512.0" type="line"/>
      <point x="391" y="1466.0"/>
      <point x="123" y="960.0"/>
      <point x="120" y="595.0" type="qcurve" smooth="yes"/>
      <point x="116" y="260.0"/>
      <point x="308" y="-10.0"/>
      <point x="437" y="-10.0" type="qcurve" smooth="yes"/>
      <point x="566" y="-10.0"/>
      <point x="735" y="203.0"/>
      <point x="735" y="430.0" type="qcurve" smooth="yes"/>
      <point x="736" y="670.0"/>
      <point x="573" y="869.0"/>
      <point x="459" y="869.0" type="qcurve" smooth="yes"/>
      <point x="388" y="869.0"/>
      <point x="269" y="793.0"/>
      <point x="252" y="774.0" type="qcurve"/>
      <point x="250" y="800.0" type="line"/>
      <point x="273" y="823.0"/>
      <point x="395" y="886.0"/>
      <point x="461" y="886.0" type="qcurve" smooth="yes"/>
      <point x="598" y="886.0"/>
      <point x="787" y="660.0"/>
      <point x="786" y="450.0" type="qcurve" smooth="yes"/>
      <point x="785" y="236.0"/>
      <point x="591" y="-26.0"/>
      <point x="442" y="-26.0" type="qcurve" smooth="yes"/>
      <point x="281" y="-26.0"/>
      <point x="59" y="287.0"/>
    </contour>
  </outline>
</glyph>
<glyph name="seven" format="2">
  <advance width="760"/>
  <unicode hex="0037"/>
  <outline>
    <contour>
      <point x="12" y="1198.0" type="line"/>
      <point x="27" y="1500.0" type="line"/>
      <point x="713" y="1500.0" type="line"/>
      <point x="713" y="1428.0" type="line"/>
      <point x="443" y="706.0" type="line"/>
      <point x="210" y="-1.0" type="line"/>
      <point x="152" y="-1.0" type="line"/>
      <point x="152" y="11.0" type="line"/>
      <point x="423" y="711.0" type="line"/>
      <point x="686" y="1415.0" type="line"/>
      <point x="679" y="1426.0" type="line"/>
      <point x="66" y="1426.0" type="line"/>
      <point x="23" y="1198.0" type="line"/>
    </contour>
  </outline>
</glyph>
<glyph name="E" format="2">
  <advance width="1120"/>
  <unicode hex="0045"/>
  <outline>
    <contour>
      <point x="68.13076923076923" y="0.0" type="line"/>
      <point x="68.13076923076923" y="19.61538461538462" type="line"/>
      <point x="256.44615384615383" y="52.723076923076924" type="line"/>
      <point x="257.44615384615383" y="784.9461538461538" type="line"/>
      <point x="256.44615384615383" y="1445.634230769231" type="line"/>
      <point x="68.13076923076923" y="1479.634230769231" type="line"/>
      <point x="68.13076923076923" y="1500.0" type="line"/>
      <point x="973.3330645161291" y="1500.0" type="line"/>
      <point x="973.3330645161291" y="1143.9153846153847" type="line"/>
      <point x="955.7126799007445" y="1143.9153846153847" type="line"/>
      <point x="878.4" y="1479.9" type="line"/>
      <point x="362.33846153846156" y="1479.8526923076925" type="line"/>
      <point x="321.1461538461539" y="1455.7450000000001" type="line"/>
      <point x="320.1461538461539" y="827.5230769230769" type="line"/>
      <point x="321.1461538461539" y="49.0396153846154" type="line"/>
      <point x="365.0692307692308" y="19.201153846153858" type="line"/>
      <point x="931.8846153846154" y="19.153846153846153" type="line"/>
      <point x="1048.2511414392059" y="386.0846153846154" type="line"/>
      <point x="1063.9253722084368" y="386.0846153846154" type="line"/>
      <point x="1024.8715260545905" y="0.0" type="line"/>
    </contour>
    <contour>
      <point x="294.55384615384617" y="777.45" type="line"/>
      <point x="294.55384615384617" y="790.2923076923076" type="line"/>
      <point x="755.6461538461539" y="796.9692307692308" type="line"/>
      <point x="816.5330645161291" y="1005.2038461538461" type="line"/>
      <point x="832.633064516129" y="1005.2038461538461" type="line"/>
      <point x="832.633064516129" y="562.7961538461539" type="line"/>
      <point x="816.5330645161291" y="562.7961538461539" type="line"/>
      <point x="755.6461538461539" y="776.0307692307692" type="line"/>
    </contour>
  </outline>
</glyph>
<glyph name="J" format="2">
  <advance width="727"/>
  <unicode hex="004A"/>
  <outline>
    <contour>
      <point x="40.707692307692305" y="1.5000000000000036" type="qcurve"/>
      <point x="47" y="27" type="line"/>
      <point x="54" y="23"/>
      <point x="96" y="10"/>
      <point x="129" y="7" type="qcurve" smooth="yes"/>
      <point x="205" y="0"/>
      <point x="319" y="129"/>
      <point x="319.4307692307692" y="292.9653846153846" type="qcurve" smooth="yes"/>
      <point x="321.4307692307692" y="678.3076923076923" type="line"/>
      <point x="318.4307692307692" y="1442.3700000000001" type="line"/>
      <point x="82" y="1476" type="line"/>
      <point x="82" y="1500.0" type="line"/>
      <point x="581.1769230769231" y="1500.0" type="line"/>
      <point x="581.1769230769231" y="1476.3700000000001" type="line"/>
      <point x="386.1307692307692" y="1442.3700000000001" type="line"/>
      <point x="384.1307692307692" y="678.3076923076923" type="line"/>
      <point x="379.6153846153846" y="272.01153846153846" type="line" smooth="yes"/>
      <point x="377.776923076923" y="136.64230769230767"/>
      <point x="252.64615384615382" y="-26.78846153846154"/>
      <point x="142.46153846153845" y="-20.165384615384617" type="qcurve" smooth="yes"/>
      <point x="109.49230769230769" y="-17.326923076923087"/>
      <point x="70.7973076923077" y="-7.987692307692322"/>
    </contour>
  </outline>
</glyph>
<glyph name="Z" format="2">
  <advance width="1046"/>
  <unicode hex="005A"/>
  <outline>
    <contour>
      <point x="41.96923076923077" y="0.0" type="line"/>
      <point x="26.65923076923077" y="27.041153846153854" type="line"/>
      <point x="867.5779280397022" y="1466.21" type="line"/>
      <point x="860.6317741935484" y="1483.6846153846154" type="line"/>
      <point x="160.96923076923076" y="1483.6846153846154" type="line"/>
      <point x="65.44615384615385" y="1139.8692307692309" type="line"/>
      <point x="45.830769230769235" y="1139.8692307692309" type="line"/>
      <point x="45.830769230769235" y="1500.0" type="line"/>
      <point x="957.2341191066998" y="1500.0" type="line"/>
      <point x="957.2341191066998" y="1473.2230769230769" type="line"/>
      <point x="122.16696029776679" y="47.137307692307694" type="line"/>
      <point x="123.05119106699752" y="23.88461538461538" type="line"/>
      <point x="886.6999999999999" y="23.88461538461538" type="line"/>
      <point x="1014.458734491315" y="388.03076923076924" type="line"/>
      <point x="1035.9648883374691" y="388.03076923076924" type="line"/>
      <point x="991.964888337469" y="0.0" type="line"/>
    </contour>
  </outline>
</glyph>
<glyph name="d" format="2">
  <advance width="1044"/>
  <unicode hex="0064"/>
  <outline>
    <contour>
      <point x="52.861538461538466" y="454.83076923076925" type="qcurve" smooth="yes"/>
      <point x="52.861538461538466" y="698.723076923077"/>
      <point x="320.34615384615387" y="944.3076923076924"/>
      <point x="500.4230769230769" y="944.3076923076924" type="qcurve" smooth="yes"/>
      <point x="603.7461538461539" y="944.3076923076924"/>
      <point x="762.3384615384616" y="888.0923076923077"/>
      <point x="800.6615384615385" y="851.6615384615385" type="qcurve"/>
      <point x="800.5538461538462" y="1451.6538461538462" type="line"/>
      <point x="610.9615384615385" y="1481.1692307692308" type="line"/>
      <point x="610.9615384615385" y="1500.0" type="line"/>
      <point x="859.6615384615384" y="1503.5923076923077" type="line"/>
      <point x="865.7692307692307" y="1497.6461538461538" type="line"/>
      <point x="869.0923076923077" y="1472.8615384615384" type="line"/>
      <point x="867.1461538461539" y="526.4846153846154" type="line"/>
      <point x="872.0923076923077" y="41.45384615384616" type="line"/>
      <point x="1018.6" y="14.453846153846158" type="line"/>
      <point x="1018.6" y="0.0" type="line"/>
      <point x="817.823076923077" y="0.0" type="line"/>
      <point x="805.7153846153847" y="17.376923076923077" type="line"/>
      <point x="802.5" y="121.72307692307693" type="line"/>
      <point x="764.9076923076923" y="75.21538461538462"/>
      <point x="585.5846153846154" y="-11.0"/>
      <point x="468.4230769230769" y="-11.0" type="qcurve" smooth="yes"/>
      <point x="283.63846153846157" y="-11.0"/>
      <point x="52.861538461538466" y="216.2076923076923"/>
    </contour>
    <contour>
      <point x="119.9923076923077" y="458.4769230769231" type="qcurve" smooth="yes"/>
      <point x="119.9923076923077" y="229.1230769230769"/>
      <point x="308.33846153846156" y="8.584615384615383"/>
      <point x="474.9615384615385" y="8.584615384615383" type="qcurve" smooth="yes"/>
      <point x="580.1230769230768" y="8.584615384615383"/>
      <point x="757.1769230769231" y="88.90769230769232"/>
      <point x="802.4461538461538" y="142.93076923076924" type="qcurve"/>
      <point x="805.4461538461538" y="530.2692307692307" type="line"/>
      <point x="801.6076923076923" y="794.9923076923077" type="line"/>
      <point x="771.9076923076923" y="835.0692307692307"/>
      <point x="603.6384615384616" y="921.6384615384616"/>
      <point x="497.6923076923077" y="921.6384615384616" type="qcurve" smooth="yes"/>
      <point x="341.04615384615386" y="921.6384615384616"/>
      <point x="119.9923076923077" y="697.9153846153846"/>
    </contour>
  </outline>
</glyph>
<glyph name="l" format="2">
  <advance width="507"/>
  <unicode hex="006C"/>
  <outline>
    <contour>
      <point x="52.07692307692308" y="0.0" type="line"/>
      <point x="52.07692307692308" y="16.980769230769234" type="line"/>
      <point x="223.63846153846154" y="40.98076923076923" type="line"/>
      <point x="226.63846153846154" y="527.0" type="line"/>
      <point x="225.63846153846154" y="1459.2230769230769" type="line"/>
      <point x="52.91538461538462" y="1480.3176923076924" type="line"/>
      <point x="52.91538461538462" y="1500.0" type="line"/>
      <point x="279.96153846153845" y="1502.646153846154" type="line"/>
      <point x="286.0692307692308" y="1496.7" type="line"/>
      <point x="288.44615384615383" y="1476.646153846154" type="line"/>
      <point x="287.44615384615383" y="527.0" type="line"/>
      <point x="292.44615384615383" y="40.98076923076923" type="line"/>
      <point x="460.68461538461537" y="16.980769230769234" type="line"/>
      <point x="460.68461538461537" y="0.0" type="line"/>
    </contour>
  </outline>
</glyph>
<glyph name="n" format="2">
  <advance width="1105"/>
  <unicode hex="006E"/>
  <outline>
    <contour>
      <point x="67.07692307692308" y="0.0" type="line"/>
      <point x="67.07692307692308" y="14.453846153846158" type="line"/>
      <point x="210.47692307692307" y="41.40653846153847" type="line"/>
      <point x="213.42307692307693" y="472.12307692307695" type="line"/>
      <point x="208.5846153846154" y="871.6938461538462" type="line"/>
      <point x="53.07692307692308" y="896.4246153846153" type="line"/>
      <point x="53.07692307692308" y="913.1461538461539" type="line"/>
      <point x="259.88461538461536" y="927.1461538461539" type="line"/>
      <point x="267.74615384615385" y="925.2846153846153" type="line"/>
      <point x="269.44615384615383" y="758.0923076923077" type="line"/>
      <point x="318.1461538461538" y="834.3076923076923"/>
      <point x="521.79317617866" y="946.2538461538461"/>
      <point x="666.2335607940447" y="946.2538461538461" type="qcurve" smooth="yes"/>
      <point x="793.0238213399504" y="946.2538461538461"/>
      <point x="923.137158808933" y="805.5230769230769"/>
      <point x="923.137158808933" y="670.0923076923077" type="qcurve" smooth="yes"/>
      <point x="923.137158808933" y="598.4692307692308"/>
      <point x="923.4042183622829" y="534.8923076923077"/>
      <point x="924.3503722084367" y="492.9384615384615" type="qcurve" smooth="yes"/>
      <point x="929.3503722084367" y="41.40653846153847" type="line"/>
      <point x="1059.4307692307693" y="14.453846153846158" type="line"/>
      <point x="1059.8580645161292" y="0.0" type="line"/>
      <point x="742.7119106699753" y="0.0" type="line"/>
      <point x="742.7119106699753" y="14.406538461538467" type="line"/>
      <point x="857.704218362283" y="41.40653846153847" type="line"/>
      <point x="859.704218362283" y="470.2307692307692" type="line"/>
      <point x="859.9712779156328" y="685.4947890818858" type="line" smooth="yes"/>
      <point x="860.2383374689826" y="808.5107320099256"/>
      <point x="742.9821960297768" y="907.4115384615385"/>
      <point x="619.5625310173698" y="907.4115384615385" type="qcurve" smooth="yes"/>
      <point x="506.30440446650124" y="907.4115384615385"/>
      <point x="317.00707196029776" y="806.0884615384615"/>
      <point x="270.39230769230767" y="737.3884615384616" type="qcurve"/>
      <point x="271.33846153846156" y="472.12307692307695" type="line"/>
      <point x="280.2846153846154" y="41.40653846153847" type="line"/>
      <point x="423.3076923076923" y="14.406538461538467" type="line"/>
      <point x="423.3076923076923" y="0.0" type="line"/>
    </contour>
  </outline>
</glyph>
<glyph name="r" format="2">
  <advance width="695"/>
  <unicode hex="0072"/>
  <anchor x="262.6923076923077" y="1.8923076923076922" name="bottom"/>
  <outline>
    <contour>
      <point x="67.07692307692308" y="0.0" type="line"/>
      <point x="67.07692307692308" y="13.980769230769234" type="line"/>
      <point x="211.42307692307693" y="40.98076923076923" type="line"/>
      <point x="213.42307692307693" y="470.2307692307692" type="line"/>
      <point x="211.42307692307693" y="870.8423076923077" type="line"/>
      <point x="53.07692307692308" y="895.5730769230769" type="line"/>
      <point x="53.07692307692308" y="913.1461538461539" type="line"/>
      <point x="263.19615384615383" y="927.1461538461539" type="line"/>
      <point x="271.0576923076923" y="925.2846153846153" type="line"/>
      <point x="270.5" y="705.6115384615384" type="line"/>
      <point x="296.94884615384615" y="811.7253846153847"/>
      <point x="480.87884615384615" y="935.3076923076923"/>
      <point x="616.0942307692308" y="935.3076923076923" type="qcurve" smooth="yes"/>
      <point x="680.0865384615385" y="935.3076923076923" type="line"/>
      <point x="680.0865384615385" y="681.5769230769231" type="line"/>
      <point x="667.6634615384615" y="681.5769230769231" type="line"/>
      <point x="583.7634615384616" y="883.123076923077" type="line"/>
      <point x="455.33923076923077" y="886.7657692307693"/>
      <point x="308.46923076923076" y="783.2307692307692"/>
      <point x="275.2307692307692" y="697.6384615384616" type="qcurve"/>
      <point x="273.2307692307692" y="470.2307692307692" type="line"/>
      <point x="281.2307692307692" y="40.98076923076923" type="line"/>
      <point x="452.36153846153843" y="13.980769230769234" type="line"/>
      <point x="452.36153846153843" y="0.0" type="line"/>
    </contour>
  </outline>
</glyph>
<glyph name="dieresis" format="2">
  <advance width="903"/>
  <unicode hex="00A8"/>
  <outline>
    <contour>
      <point x="491.0846153846154" y="1064.3692307692309" type="qcurve" smooth="yes"/>
      <point x="491.0846153846154" y="1086.123076923077"/>
      <point x="521.5153846153846" y="1116.6076923076923"/>
      <point x="543.323076923077" y="1116.6076923076923" type="qcurve" smooth="yes"/>
      <point x="567.9692307692308" y="1116.6076923076923"/>
      <point x="598.5615384615385" y="1087.9076923076923"/>
      <point x="598.5615384615385" y="1064.3692307692309" type="qcurve" smooth="yes"/>
      <point x="598.5615384615385" y="1042.5615384615385"/>
      <point x="566.1846153846154" y="1011.1307692307693"/>
      <point x="543.323076923077" y="1011.1307692307693" type="qcurve" smooth="yes"/>
      <point x="520.6769230769231" y="1011.1307692307693"/>
      <point x="491.0846153846154" y="1040.7230769230769"/>
    </contour>
    <contour>
      <point x="304.33076923076925" y="1064.3692307692309" type="qcurve" smooth="yes"/>
      <point x="304.33076923076925" y="1086.123076923077"/>
      <point x="336.76153846153846" y="1116.6076923076923"/>
      <point x="359.5692307692308" y="1116.6076923076923" type="qcurve" smooth="yes"/>
      <point x="382.2153846153846" y="1116.6076923076923"/>
      <point x="411.8076923076923" y="1087.9076923076923"/>
      <point x="411.8076923076923" y="1064.3692307692309" type="qcurve" smooth="yes"/>
      <point x="411.8076923076923" y="1042.5615384615385"/>
      <point x="381.4307692307692" y="1011.1307692307693"/>
      <point x="359.5692307692308" y="1011.1307692307693" type="qcurve" smooth="yes"/>
      <point x="334.9230769230769" y="1011.1307692307693"/>
      <point x="304.33076923076925" y="1040.7230769230769"/>
    </contour>
  </outline>
</glyph>
<glyph name="logicalnot" format="2">
  <advance width="849"/>
  <unicode hex="00AC"/>
  <outline>
    <contour>
      <point x="125.38461538461539" y="737.0" type="line"/>
      <point x="766.0" y="737.0" type="line"/>
      <point x="766.0" y="340.61538461538464" type="line"/>
      <point x="739.8461538461538" y="340.61538461538464" type="line"/>
      <point x="739.8461538461538" y="714.3076923076923" type="line"/>
      <point x="125.38461538461539" y="714.3076923076923" type="line"/>
    </contour>
  </outline>
</glyph>
<glyph name="onesuperior" format="2">
  <advance width="715"/>
  <unicode hex="00B9"/>
  <outline>
    <contour>
      <point x="146.46153846153845" y="761.776923076923" type="line"/>
      <point x="146.46153846153845" y="783.3807692307693" type="line"/>
      <point x="351.8822580645161" y="811.3807692307693" type="line"/>
      <point x="351.8822580645161" y="1156.576923076923" type="line"/>
      <point x="350.8822580645161" y="1410.6287220843674" type="line"/>
      <point x="135.0" y="1422.694789081886" type="line"/>
      <point x="135.0" y="1445.1307692307691" type="line"/>
      <point x="420.81774193548387" y="1509.0" type="line"/>
      <point x="424.3562034739454" y="1509.923076923077" type="line"/>
      <point x="422.3562034739454" y="1156.576923076923" type="line"/>
      <point x="422.3562034739454" y="811.3807692307693" type="line"/>
      <point x="620.1538461538462" y="783.3807692307693" type="line"/>
      <point x="620.1538461538462" y="761.776923076923" type="line"/>
    </contour>
  </outline>
</glyph>
<glyph name="idotless" format="2">
  <advance width="512"/>
  <unicode hex="0131"/>
  <outline>
    <contour>
      <point x="54.96923076923077" y="0.0" type="line"/>
      <point x="54.96923076923077" y="-13.823076923076918" type="line"/>
      <point x="231.42307692307693" y="11.176923076923082" type="line"/>
      <point x="233.42307692307693" y="479.6923076923077" type="line"/>
      <point x="231.36923076923077" y="903.6461538461539" type="line"/>
      <point x="59.02307692307693" y="930.376923076923" type="line"/>
      <point x="59.02307692307693" y="914.1461538461539" type="line"/>
      <point x="289.1" y="933.9307692307692" type="line"/>
      <point x="273.87692307692305" y="931.9307692307692" type="line"/>
      <point x="296.2307692307692" y="897.9307692307692" type="line"/>
      <point x="293.2307692307692" y="479.6923076923077" type="line"/>
      <point x="300.2307692307692" y="11.176923076923082" type="line"/>
      <point x="456.33076923076925" y="-13.823076923076918" type="line"/>
      <point x="456.33076923076925" y="0.0" type="line"/>
    </contour>
  </outline>
</glyph>
<glyph name="commaaccentcomb" format="2">
  <advance width="903"/>
  <unicode hex="0326"/>
  <outline>
    <contour>
      <point x="389.7230769230769" y="-407.1692307692308" type="line"/>
      <point x="443.18461538461537" y="-362.6538461538462"/>
      <point x="471.44615384615383" y="-297.25384615384615"/>
      <point x="481.7692307692308" y="-251.66153846153847" type="qcurve"/>
      <point x="437.9076923076923" y="-261.60769230769233"/>
      <point x="403.7769230769231" y="-231.47692307692307"/>
      <point x="403.7769230769231" y="-207.6153846153846" type="qcurve" smooth="yes"/>
      <point x="403.7769230769231" y="-182.86153846153846"/>
      <point x="429.17692307692306" y="-159.3"/>
      <point x="451.1461538461539" y="-159.3" type="qcurve" smooth="yes"/>
      <point x="474.9" y="-159.3"/>
      <point x="496.62307692307695" y="-195.16153846153847"/>
      <point x="496.62307692307695" y="-214.66923076923078" type="qcurve" smooth="yes"/>
      <point x="496.62307692307695" y="-244.52307692307693"/>
      <point x="456.74615384615385" y="-322.5076923076923"/>
      <point x="366.82307692307694" y="-385.53846153846155" type="qcurve"/>
    </contour>
  </outline>
</glyph>
<glyph name="emdash" format="2">
  <advance width="2049"/>
  <unicode hex="2014"/>
  <outline>
    <contour>
      <point x="256.94615384615383" y="606.4615384615385" type="line"/>
      <point x="256.94615384615383" y="651.0769230769231" type="line"/>
      <point x="1027.053846153846" y="651.1846153846154" type="line"/>
      <point x="1792.053846153846" y="651.0769230769231" type="line"/>
      <point x="1792.053846153846" y="606.4615384615385" type="line"/>
      <point x="1027.053846153846" y="606.1384615384616" type="line"/>
    </contour>
  </outline>
</glyph>
<glyph name="bullet" format="2">
  <advance width="664"/>
  <unicode hex="2022"/>
  <outline>
    <contour>
      <point x="168.0" y="736.6153846153846" type="qcurve" smooth="yes"/>
      <point x="168.0" y="801.6153846153846"/>
      <point x="260.0" y="896.6153846153846"/>
      <point x="333.89230769230767" y="896.6153846153846" type="qcurve" smooth="yes"/>
      <point x="404.0" y="896.6153846153846"/>
      <point x="496.0" y="801.6153846153846"/>
      <point x="496.0" y="736.6153846153846" type="qcurve" smooth="yes"/>
      <point x="496.0" y="671.6153846153846"/>
      <point x="404.0" y="576.6153846153846"/>
      <point x="333.89230769230767" y="576.6153846153846" type="qcurve" smooth="yes"/>
      <point x="260.0" y="576.6153846153846"/>
      <point x="168.0" y="671.6153846153846"/>
    </contour>
  </outline>
</glyph>
<glyph name="guilsinglleft" format="2">
  <advance width="709"/>
  <unicode hex="2039"/>
  <outline>
    <contour>
      <point x="95.0" y="619.9461538461538" type="line"/>
      <point x="95.0" y="619.9461538461538"/>
      <point x="624.8384615384615" y="992.6"/>
      <point x="640.4230769230769" y="1007.376923076923" type="qcurve" smooth="yes"/>
      <point x="645.6538461538462" y="1016.4769230769231"/>
      <point x="637.2384615384615" y="1013.1384615384616"/>
      <point x="631.0615384615385" y="1006.0923076923077" type="qcurve" smooth="yes"/>
      <point x="606.4923076923077" y="983.8384615384615"/>
      <point x="144.1769230769231" y="612.4076923076923"/>
      <point x="130.93076923076922" y="602.0" type="qcurve"/>
      <point x="142.2846153846154" y="590.6461538461539"/>
      <point x="599.5307692307692" y="231.36153846153846"/>
      <point x="646.0076923076923" y="193.85384615384615" type="qcurve" smooth="yes"/>
      <point x="637.1846153846154" y="196.80769230769232"/>
      <point x="638.2461538461539" y="199.57692307692307"/>
      <point x="652.6923076923077" y="193.46153846153845" type="qcurve" smooth="yes"/>
      <point x="593.5846153846154" y="232.19230769230768"/>
      <point x="162.0" y="541.0"/>
      <point x="95.94615384615385" y="589.0" type="qcurve"/>
    </contour>
  </outline>
</glyph>
<glyph name="peseta" format="2">
  <advance width="1782"/>
  <unicode hex="20A7"/>
  <outline>
    <contour>
      <point x="50.13076923076923" y="0.0" type="line"/>
      <point x="50.13076923076923" y="-22.961538461538453" type="line"/>
      <point x="255.44615384615383" y="5.038461538461547" type="line"/>
      <point x="257.44615384615383" y="762.0" type="line"/>
      <point x="256.44615384615383" y="1504.423076923077" type="line"/>
      <point x="68.13076923076923" y="1533.423076923077" type="line"/>
      <point x="68.13076923076923" y="1500.0" type="line"/>
      <point x="515.2307692307693" y="1500.0" type="line" smooth="yes"/>
      <point x="738.5538461538462" y="1500.0"/>
      <point x="961.4153846153846" y="1333.6"/>
      <point x="961.4153846153846" y="1081.1846153846154" type="qcurve" smooth="yes"/>
      <point x="961.4153846153846" y="908.3"/>
      <point x="733.9846153846154" y="684.3846153846154"/>
      <point x="489.33076923076925" y="684.3846153846154" type="qcurve" smooth="yes"/>
      <point x="422.68461538461537" y="684.3846153846154"/>
      <point x="339.33846153846156" y="696.4384615384615"/>
      <point x="292.7153846153846" y="713.3846153846154" type="qcurve"/>
      <point x="296.7153846153846" y="695.5307692307692" type="line"/>
      <point x="367.4769230769231" y="673.8538461538461"/>
      <point x="425.03846153846155" y="662.8538461538461"/>
      <point x="513.3384615384615" y="662.8538461538461" type="qcurve" smooth="yes"/>
      <point x="670.876923076923" y="662.8538461538461"/>
      <point x="887.9307692307692" y="861.3692307692307"/>
      <point x="887.9307692307692" y="1117.246153846154" type="qcurve" smooth="yes"/>
      <point x="887.9307692307692" y="1335.9846153846154"/>
      <point x="670.876923076923" y="1526.1538461538462"/>
      <point x="471.2" y="1526.1538461538462" type="qcurve" smooth="yes"/>
      <point x="355.2" y="1526.1538461538462" type="line"/>
      <point x="322.1461538461539" y="1502.3692307692309" type="line"/>
      <point x="320.1461538461539" y="713.0153846153846" type="line"/>
      <point x="322.1461538461539" y="5.038461538461547" type="line"/>
      <point x="542.5461538461539" y="-22.961538461538453" type="line"/>
      <point x="542.5461538461539" y="0.0" type="line"/>
    </contour>
    <contour>
      <point x="839.3153846153846" y="725.2923076923078" type="line"/>
      <point x="839.3153846153846" y="723.6076923076923" type="line"/>
      <point x="868.0846153846154" y="735.6076923076923"/>
      <point x="985.7153846153847" y="826.6307692307693"/>
      <point x="1016.4769230769231" y="983.3692307692307" type="qcurve"/>
      <point x="1024.7692307692307" y="983.3692307692307" type="line"/>
      <point x="992.7307692307693" y="949.8538461538461" type="line"/>
      <point x="986.3" y="718.7384615384615" type="line"/>
      <point x="1248.1923076923076" y="718.7384615384615" type="line"/>
      <point x="1248.1923076923076" y="724.9692307692308" type="line"/>
      <point x="997.6538461538462" y="724.9692307692308" type="line"/>
      <point x="1005.2230769230769" y="398.32307692307694" type="line"/>
      <point x="1003.2769230769231" y="126.88461538461539" type="line" smooth="yes"/>
      <point x="1004.2230769230769" y="68.26153846153846"/>
      <point x="1047.1153846153845" y="31.04615384615385"/>
      <point x="1095.6" y="20.63846153846154" type="qcurve" smooth="yes"/>
      <point x="1231.9153846153845" y="12.123076923076923" type="line"/>
      <point x="1231.9153846153845" y="23.946153846153845" type="line"/>
      <point x="1030.4153846153847" y="-8.0" type="line"/>
      <point x="997.4461538461538" y="-6.892307692307693"/>
      <point x="960.3384615384616" y="46.215384615384615"/>
      <point x="961.3384615384616" y="91.96923076923076" type="qcurve"/>
      <point x="954.823076923077" y="479.6923076923077" type="line"/>
      <point x="954.823076923077" y="755.8153846153846" type="line"/>
    </contour>
    <contour>
      <point x="1222.646153846154" y="3.7846153846153845" type="line"/>
      <point x="1224.5384615384614" y="241.0923076923077" type="line"/>
      <point x="1197.9" y="241.0923076923077" type="line"/>
      <point x="1260.8846153846155" y="128.91538461538462" type="line" smooth="yes"/>
      <point x="1300.1307692307691" y="39.35384615384616"/>
      <point x="1441.8" y="-20.715384615384615"/>
      <point x="1512.7384615384615" y="-20.715384615384615" type="qcurve" smooth="yes"/>
      <point x="1588.3538461538462" y="-20.715384615384615"/>
      <point x="1666.7230769230769" y="74.36153846153846"/>
      <point x="1666.7230769230769" y="151.16923076923078" type="qcurve" smooth="yes"/>
      <point x="1666.7230769230769" y="236.65384615384616"/>
      <point x="1547.023076923077" y="342.7076923076923"/>
      <point x="1451.4384615384615" y="395.6" type="qcurve" smooth="yes"/>
      <point x="1347.0153846153846" y="450.4384615384615"/>
      <point x="1251.2384615384615" y="545.0"/>
      <point x="1251.2384615384615" y="623.9692307692308" type="qcurve" smooth="yes"/>
      <point x="1251.2384615384615" y="710.9384615384615"/>
      <point x="1336.9307692307693" y="800.4153846153846"/>
      <point x="1418.7307692307693" y="800.4153846153846" type="qcurve" smooth="yes"/>
      <point x="1481.646153846154" y="800.4153846153846"/>
      <point x="1557.476923076923" y="766.7153846153847"/>
      <point x="1581.123076923077" y="724.2" type="qcurve"/>
      <point x="1661.6769230769232" y="795.5" type="line"/>
      <point x="1650.3384615384616" y="795.5" type="line"/>
      <point x="1650.3384615384616" y="545.4538461538461" type="line"/>
      <point x="1670.0846153846155" y="545.4538461538461" type="line"/>
      <point x="1631.4307692307693" y="626.5615384615385" type="line" smooth="yes"/>
      <point x="1600.2384615384615" y="736.0230769230769"/>
      <point x="1467.023076923077" y="811.7"/>
      <point x="1409.9461538461537" y="811.7" type="qcurve" smooth="yes"/>
      <point x="1334.4923076923078" y="811.7"/>
      <point x="1267.3076923076924" y="740.7846153846153"/>
      <point x="1267.3076923076924" y="675.4076923076923" type="qcurve" smooth="yes"/>
      <point x="1267.3076923076924" y="601.1923076923077"/>
      <point x="1373.9846153846154" y="503.24615384615385"/>
      <point x="1477.3" y="450.3538461538462" type="qcurve" smooth="yes"/>
      <point x="1580.5076923076922" y="394.62307692307695"/>
      <point x="1689.3076923076924" y="270.86923076923074"/>
      <point x="1689.3076923076924" y="202.1769230769231" type="qcurve" smooth="yes"/>
      <point x="1689.3076923076924" y="87.36923076923077"/>
      <point x="1562.9384615384615" y="-13.376923076923077"/>
      <point x="1499.1692307692308" y="-13.376923076923077" type="qcurve" smooth="yes"/>
      <point x="1415.9538461538461" y="-13.376923076923077"/>
      <point x="1290.2" y="31.43076923076923"/>
      <point x="1247.0384615384614" y="62.61538461538461" type="qcurve"/>
      <point x="1199.6307692307691" y="13.246153846153845" type="line"/>
    </contour>
  </outline>
</glyph>
<glyph name="circumflexcomb.case" format="2">
  <advance width="903"/>
  <outline>
    <contour>
      <point x="450.5" y="1807.6846153846154" type="qcurve" smooth="yes"/>
      <point x="461.25384615384615" y="1807.6846153846154"/>
      <point x="482.9" y="1761.4923076923078"/>
      <point x="517.7923076923078" y="1724.2769230769231" type="qcurve" smooth="yes"/>
      <point x="660.5153846153846" y="1529.3076923076924" type="line"/>
      <point x="680.7692307692307" y="1560.8615384615384" type="line"/>
      <point x="450.5" y="1762.6153846153845" type="line"/>
      <point x="224.01538461538462" y="1554.2384615384615" type="line"/>
      <point x="251.83846153846153" y="1528.3615384615384" type="line"/>
      <point x="383.2076923076923" y="1724.2769230769231" type="line" smooth="yes"/>
      <point x="414.6923076923077" y="1768.5461538461539"/>
      <point x="439.74615384615385" y="1807.6846153846154"/>
    </contour>
  </outline>
</glyph>
<glyph name="diagonalbarl" format="2">
  <advance width="639"/>
  <outline>
    <contour>
      <point x="320.9230769230769" y="767.8076923076923" type="line"/>
      <point x="627.9230769230769" y="1005.8076923076923" type="line"/>
      <point x="622.2384615384616" y="1028.9615384615386" type="line"/>
      <point x="316.23846153846154" y="800.9615384615385" type="line"/>
      <point x="37.238461538461536" y="581.9615384615385" type="line"/>
      <point x="41.92307692307692" y="560.8076923076923" type="line"/>
    </contour>
  </outline>
</glyph>
<glyph name="diagonalbaro" format="2">
  <advance width="512"/>
  <outline>
    <contour>
      <point x="78.23076923076923" y="-122.0" type="line"/>
      <point x="122.93076923076923" y="31.123076923076923" type="line"/>
      <point x="111.9" y="33.853846153846156" type="line"/>
      <point x="249.73846153846154" y="560.2923076923076" type="line"/>
      <point x="223.66923076923078" y="541.4923076923077" type="line"/>
      <point x="83.63846153846154" y="17.1" type="line"/>
      <point x="71.71538461538462" y="18.884615384615387" type="line"/>
      <point x="32.06923076923077" y="-125.0" type="line"/>
    </contour>
    <contour>
      <point x="419.2307692307692" y="1145.0" type="line"/>
      <point x="378.0692307692308" y="1145.0" type="line"/>
      <point x="324.17692307692306" y="937.9153846153846" type="line"/>
      <point x="336.04615384615386" y="935.1307692307693" type="line"/>
      <point x="223.66923076923078" y="541.4923076923077" type="line"/>
      <point x="249.73846153846154" y="560.2923076923076" type="line"/>
      <point x="359.5769230769231" y="947.9384615384615" type="line"/>
      <point x="371.5" y="945.2076923076924" type="line"/>
    </contour>
  </outline>
</glyph>
<glyph name="eight.lf" format="2">
  <advance width="817"/>
  <outline>
    <contour>
      <point x="42" y="344" type="qcurve" smooth="yes"/>
      <point x="42" y="493"/>
      <point x="203" y="740"/>
      <point x="379" y="828" type="qcurve"/>
      <point x="387" y="815" type="line"/>
      <point x="215" y="723"/>
      <point x="78" y="482"/>
      <point x="78" y="343" type="qcurve" smooth="yes"/>
      <point x="77" y="202"/>
      <point x="255" y="-10"/>
      <point x="401" y="-10" type="qcurve" smooth="yes"/>
      <point x="539" y="-10"/>
      <point x="715" y="190"/>
      <point x="719" y="350" type="qcurve" smooth="yes"/>
      <point x="722" y="514"/>
      <point x="515" y="721"/>
      <point x="392" y="799" type="qcurve" smooth="yes"/>
      <point x="260" y="881"/>
      <point x="99" y="1056"/>
      <point x="100" y="1191" type="qcurve" smooth="yes"/>
      <point x="100" y="1340"/>
      <point x="276" y="1520"/>
      <point x="411" y="1520" type="qcurve" smooth="yes"/>
      <point x="537" y="1520"/>
      <point x="700" y="1358"/>
      <point x="700" y="1222" type="qcurve" smooth="yes"/>
      <point x="700" y="1083"/>
      <point x="544" y="881"/>
      <point x="422" y="819" type="qcurve"/>
      <point x="407" y="832" type="line"/>
      <point x="546" y="907"/>
      <point x="682" y="1097"/>
      <point x="682" y="1221" type="qcurve" smooth="yes"/>
      <point x="682" y="1346"/>
      <point x="537" y="1497"/>
      <point x="411" y="1497" type="qcurve" smooth="yes"/>
      <point x="304" y="1497"/>
      <point x="145" y="1360"/>
      <point x="144" y="1209" type="qcurve" smooth="yes"/>
      <point x="144" y="1085"/>
      <point x="303" y="929"/>
      <point x="428" y="848" type="qcurve" smooth="yes"/>
      <point x="561" y="763"/>
      <point x="773" y="535"/>
      <point x="773" y="377" type="qcurve" smooth="yes"/>
      <point x="773" y="213"/>
      <point x="574" y="-26"/>
      <point x="402" y="-26" type="qcurve" smooth="yes"/>
      <point x="248" y="-26"/>
      <point x="42" y="192"/>
    </contour>
  </outline>
</glyph>
<glyph name="engtail" format="2">
  <advance width="629"/>
  <outline>
    <contour>
      <point x="444.4923076923077" y="147.0" type="line"/>
      <point x="518.3307692307692" y="147.0" type="line"/>
      <point x="518.3307692307692" y="-206.0" type="line" smooth="yes"/>
      <point x="518.3307692307692" y="-322.0"/>
      <point x="383.4923076923077" y="-443.0"/>
      <point x="283.4923076923077" y="-443.0" type="qcurve" smooth="yes"/>
      <point x="209.4923076923077" y="-443.0"/>
      <point x="85.64361042183623" y="-356.65465260545903"/>
      <point x="73.41538461538461" y="-329.0" type="qcurve"/>
      <point x="74.08461538461538" y="-335.5769230769231" type="line"/>
      <point x="119.1923076923077" y="-386.46923076923076"/>
      <point x="244.05086848635233" y="-431.3076923076923"/>
      <point x="300.05086848635233" y="-431.3076923076923" type="qcurve" smooth="yes"/>
      <point x="366.4112282878412" y="-431.3076923076923"/>
      <point x="450.7923076923077" y="-326.8302109181141"/>
      <point x="450.7923076923077" y="-239.92307692307693" type="qcurve" smooth="yes"/>
      <point x="450.7923076923077" y="-160.92307692307693"/>
      <point x="450.7923076923077" y="113.0"/>
      <point x="450.7923076923077" y="113.0" type="qcurve"/>
    </contour>
  </outline>
</glyph>
<glyph name="horizontalbarlc" format="2">
  <advance width="656"/>
  <outline>
    <contour>
      <point x="329.3538461538462" y="769.3076923076923" type="line"/>
      <point x="69.8923076923077" y="769.3076923076923" type="line"/>
      <point x="75.0" y="744.1538461538462" type="line"/>
      <point x="350.53846153846155" y="744.1538461538462" type="line"/>
      <point x="624.0" y="744.1538461538462" type="line"/>
      <point x="625.8923076923077" y="769.3076923076923" type="line"/>
    </contour>
  </outline>
</glyph>
<glyph name="six.lf" format="2">
  <advance width="825"/>
  <outline>
    <contour>
      <point x="60" y="612" type="qcurve" smooth="yes"/>
      <point x="60" y="973"/>
      <point x="368" y="1465"/>
      <point x="599" y="1525" type="qcurve"/>
      <point x="609" y="1512" type="line"/>
      <point x="391" y="1466"/>
      <point x="123" y="960"/>
      <point x="120" y="595" type="qcurve" smooth="yes"/>
      <point x="116" y="260"/>
      <point x="308" y="-10"/>
      <point x="437" y="-10" type="qcurve" smooth="yes"/>
      <point x="566" y="-10"/>
      <point x="735" y="203"/>
      <point x="735" y="430" type="qcurve" smooth="yes"/>
      <point x="736" y="670"/>
      <point x="573" y="869"/>
      <point x="459" y="869" type="qcurve" smooth="yes"/>
      <point x="388" y="869"/>
      <point x="269" y="793"/>
      <point x="252" y="774" type="qcurve"/>
      <point x="250" y="800" type="line"/>
      <point x="273" y="823"/>
      <point x="395" y="886"/>
      <point x="461" y="886" type="qcurve" smooth="yes"/>
      <point x="598" y="886"/>
      <point x="787" y="660"/>
      <point x="786" y="450" type="qcurve" smooth="yes"/>
      <point x="785" y="236"/>
      <point x="591" y="-26"/>
      <point x="442" y="-26" type="qcurve" smooth="yes"/>
      <point x="281" y="-26"/>
      <point x="59" y="287"/>
    </contour>
  </outline>
</glyph>
<glyph name="tildecomb.case" format="2">
  <advance width="903"/>
  <outline>
    <contour>
      <point x="275.7923076923077" y="1641.8" type="line"/>
      <point x="288.54615384615386" y="1671.6615384615384"/>
      <point x="344.2692307692308" y="1745.823076923077"/>
      <point x="378.45384615384614" y="1745.823076923077" type="qcurve" smooth="yes"/>
      <point x="406.7230769230769" y="1745.823076923077"/>
      <point x="442.9076923076923" y="1731.446153846154"/>
      <point x="465.39230769230767" y="1718.176923076923" type="qcurve" smooth="yes"/>
      <point x="496.8" y="1695.7153846153847"/>
      <point x="526.0615384615385" y="1681.3692307692309"/>
      <point x="550.6" y="1681.3692307692309" type="qcurve" smooth="yes"/>
      <point x="569.3" y="1681.3692307692309"/>
      <point x="599.0769230769231" y="1712.8"/>
      <point x="608.6153846153846" y="1732.2307692307693" type="qcurve"/>
      <point x="607.2307692307693" y="1756.2692307692307" type="line"/>
      <point x="593.3692307692307" y="1719.246153846154"/>
      <point x="549.376923076923" y="1660.1923076923076"/>
      <point x="522.4615384615385" y="1660.1923076923076" type="qcurve" smooth="yes"/>
      <point x="496.7076923076923" y="1660.1923076923076"/>
      <point x="459.5" y="1669.4846153846154"/>
      <point x="433.7153846153846" y="1684.4846153846154" type="qcurve" smooth="yes"/>
      <point x="407.7153846153846" y="1698.6461538461538"/>
      <point x="371.4230769230769" y="1724.6461538461538"/>
      <point x="352.2076923076923" y="1724.6461538461538" type="qcurve" smooth="yes"/>
      <point x="326.5076923076923" y="1724.6461538461538"/>
      <point x="274.53846153846155" y="1683.0"/>
      <point x="266.16153846153844" y="1668.676923076923" type="qcurve"/>
    </contour>
  </outline>
</glyph>
